<mxfile host="app.diagrams.net" modified="2020-09-01T04:24:09.060Z" agent="5.0 (Macintosh; Intel Mac OS X 10_15_3) AppleWebKit/537.36 (KHTML, like Gecko) Chrome/84.0.4147.125 Safari/537.36" etag="XBzw7SyspJRt1Mvl-75N" version="13.6.6" type="github">
  <diagram id="5aAfgGovn8YOcxr-3ory" name="Page-1">
    <mxGraphModel dx="983" dy="532" grid="1" gridSize="10" guides="1" tooltips="1" connect="1" arrows="1" fold="1" page="1" pageScale="1" pageWidth="1200" pageHeight="1920" math="0" shadow="0">
      <root>
        <mxCell id="0" />
        <mxCell id="1" parent="0" />
        <mxCell id="QjIzyJawKiu5ySrEtMav-4" value="Scheduler" style="html=1;" vertex="1" parent="1">
          <mxGeometry x="195" y="90" width="80" height="40" as="geometry" />
        </mxCell>
        <mxCell id="QjIzyJawKiu5ySrEtMav-8" value="" style="endArrow=none;dashed=1;html=1;entryX=0.5;entryY=1;entryDx=0;entryDy=0;" edge="1" parent="1" target="QjIzyJawKiu5ySrEtMav-4">
          <mxGeometry width="50" height="50" relative="1" as="geometry">
            <mxPoint x="235" y="470" as="sourcePoint" />
            <mxPoint x="400" y="180" as="targetPoint" />
          </mxGeometry>
        </mxCell>
        <mxCell id="QjIzyJawKiu5ySrEtMav-3" value="" style="html=1;points=[];perimeter=orthogonalPerimeter;" vertex="1" parent="1">
          <mxGeometry x="230" y="160" width="10" height="290" as="geometry" />
        </mxCell>
        <mxCell id="QjIzyJawKiu5ySrEtMav-9" value="Resource&lt;br&gt;Manager" style="html=1;" vertex="1" parent="1">
          <mxGeometry x="339" y="90" width="80" height="40" as="geometry" />
        </mxCell>
        <mxCell id="QjIzyJawKiu5ySrEtMav-10" value="" style="endArrow=none;dashed=1;html=1;entryX=0.5;entryY=1;entryDx=0;entryDy=0;" edge="1" parent="1" source="QjIzyJawKiu5ySrEtMav-11" target="QjIzyJawKiu5ySrEtMav-9">
          <mxGeometry width="50" height="50" relative="1" as="geometry">
            <mxPoint x="379" y="420" as="sourcePoint" />
            <mxPoint x="399" y="140" as="targetPoint" />
          </mxGeometry>
        </mxCell>
        <mxCell id="QjIzyJawKiu5ySrEtMav-11" value="" style="html=1;points=[];perimeter=orthogonalPerimeter;" vertex="1" parent="1">
          <mxGeometry x="374" y="160" width="10" height="120" as="geometry" />
        </mxCell>
        <mxCell id="QjIzyJawKiu5ySrEtMav-12" value="" style="endArrow=none;dashed=1;html=1;entryX=0.5;entryY=1;entryDx=0;entryDy=0;" edge="1" parent="1" source="QjIzyJawKiu5ySrEtMav-56" target="QjIzyJawKiu5ySrEtMav-11">
          <mxGeometry width="50" height="50" relative="1" as="geometry">
            <mxPoint x="379" y="419.9999999999999" as="sourcePoint" />
            <mxPoint x="379" y="130" as="targetPoint" />
          </mxGeometry>
        </mxCell>
        <mxCell id="QjIzyJawKiu5ySrEtMav-15" value="" style="endArrow=classic;html=1;exitX=1.001;exitY=0.001;exitDx=0;exitDy=0;exitPerimeter=0;entryX=0.123;entryY=-0.001;entryDx=0;entryDy=0;entryPerimeter=0;" edge="1" parent="1" target="QjIzyJawKiu5ySrEtMav-11">
          <mxGeometry width="50" height="50" relative="1" as="geometry">
            <mxPoint x="240.01" y="160.08000000000004" as="sourcePoint" />
            <mxPoint x="364.44000000000005" y="160.08000000000004" as="targetPoint" />
          </mxGeometry>
        </mxCell>
        <mxCell id="QjIzyJawKiu5ySrEtMav-16" value="&lt;font style=&quot;font-size: 10px&quot;&gt;1. 获取任务列表&lt;/font&gt;" style="text;html=1;strokeColor=none;fillColor=none;align=center;verticalAlign=middle;whiteSpace=wrap;rounded=0;" vertex="1" parent="1">
          <mxGeometry x="245" y="140" width="110" height="20" as="geometry" />
        </mxCell>
        <mxCell id="QjIzyJawKiu5ySrEtMav-20" value="1.1基本检查&amp;nbsp;" style="edgeStyle=orthogonalEdgeStyle;html=1;align=left;spacingLeft=2;endArrow=block;rounded=0;entryX=1;entryY=0;" edge="1" parent="1">
          <mxGeometry relative="1" as="geometry">
            <mxPoint x="384" y="160" as="sourcePoint" />
            <Array as="points">
              <mxPoint x="409" y="160" />
            </Array>
            <mxPoint x="389" y="180" as="targetPoint" />
          </mxGeometry>
        </mxCell>
        <mxCell id="QjIzyJawKiu5ySrEtMav-21" value="Fetcher&lt;br&gt;Manager" style="html=1;" vertex="1" parent="1">
          <mxGeometry x="590" y="90" width="80" height="40" as="geometry" />
        </mxCell>
        <mxCell id="QjIzyJawKiu5ySrEtMav-22" value="Outer Metrics" style="html=1;" vertex="1" parent="1">
          <mxGeometry x="700" y="90" width="90" height="40" as="geometry" />
        </mxCell>
        <mxCell id="QjIzyJawKiu5ySrEtMav-24" value="Yarn" style="html=1;" vertex="1" parent="1">
          <mxGeometry x="500" y="90" width="80" height="40" as="geometry" />
        </mxCell>
        <mxCell id="QjIzyJawKiu5ySrEtMav-25" value="" style="endArrow=none;dashed=1;html=1;entryX=0.5;entryY=1;entryDx=0;entryDy=0;" edge="1" parent="1">
          <mxGeometry width="50" height="50" relative="1" as="geometry">
            <mxPoint x="540" y="460" as="sourcePoint" />
            <mxPoint x="539.71" y="130" as="targetPoint" />
          </mxGeometry>
        </mxCell>
        <mxCell id="QjIzyJawKiu5ySrEtMav-26" value="" style="html=1;points=[];perimeter=orthogonalPerimeter;" vertex="1" parent="1">
          <mxGeometry x="535" y="213" width="10" height="67" as="geometry" />
        </mxCell>
        <mxCell id="QjIzyJawKiu5ySrEtMav-27" value="" style="endArrow=classic;html=1;exitX=0.986;exitY=0.488;exitDx=0;exitDy=0;exitPerimeter=0;" edge="1" parent="1" target="QjIzyJawKiu5ySrEtMav-26">
          <mxGeometry width="50" height="50" relative="1" as="geometry">
            <mxPoint x="383.8600000000001" y="214.03999999999996" as="sourcePoint" />
            <mxPoint x="525.22" y="274.99999999999994" as="targetPoint" />
          </mxGeometry>
        </mxCell>
        <mxCell id="QjIzyJawKiu5ySrEtMav-28" value="&lt;font style=&quot;font-size: 10px&quot;&gt;1.2 获取Job基本信息&lt;/font&gt;" style="text;html=1;strokeColor=none;fillColor=none;align=center;verticalAlign=middle;whiteSpace=wrap;rounded=0;" vertex="1" parent="1">
          <mxGeometry x="397" y="190" width="130" height="20" as="geometry" />
        </mxCell>
        <mxCell id="QjIzyJawKiu5ySrEtMav-30" value="&lt;font style=&quot;font-size: 10px&quot;&gt;1.3 返回&lt;/font&gt;" style="text;html=1;strokeColor=none;fillColor=none;align=center;verticalAlign=middle;whiteSpace=wrap;rounded=0;" vertex="1" parent="1">
          <mxGeometry x="280" y="260" width="63" height="20" as="geometry" />
        </mxCell>
        <mxCell id="QjIzyJawKiu5ySrEtMav-31" value="" style="endArrow=block;dashed=1;endFill=0;endSize=12;html=1;exitX=0.1;exitY=1;exitDx=0;exitDy=0;exitPerimeter=0;" edge="1" parent="1">
          <mxGeometry width="160" relative="1" as="geometry">
            <mxPoint x="384" y="280.36" as="sourcePoint" />
            <mxPoint x="240" y="280" as="targetPoint" />
          </mxGeometry>
        </mxCell>
        <mxCell id="QjIzyJawKiu5ySrEtMav-32" value="" style="endArrow=classic;html=1;exitX=1.014;exitY=0.895;exitDx=0;exitDy=0;exitPerimeter=0;entryX=0.044;entryY=0.003;entryDx=0;entryDy=0;entryPerimeter=0;" edge="1" parent="1" target="QjIzyJawKiu5ySrEtMav-34">
          <mxGeometry width="50" height="50" relative="1" as="geometry">
            <mxPoint x="240.1400000000001" y="309.04999999999995" as="sourcePoint" />
            <mxPoint x="670" y="309" as="targetPoint" />
          </mxGeometry>
        </mxCell>
        <mxCell id="QjIzyJawKiu5ySrEtMav-33" value="" style="endArrow=none;dashed=1;html=1;entryX=0.5;entryY=1;entryDx=0;entryDy=0;" edge="1" parent="1" source="QjIzyJawKiu5ySrEtMav-34">
          <mxGeometry width="50" height="50" relative="1" as="geometry">
            <mxPoint x="630.05" y="420" as="sourcePoint" />
            <mxPoint x="629.76" y="130" as="targetPoint" />
          </mxGeometry>
        </mxCell>
        <mxCell id="QjIzyJawKiu5ySrEtMav-34" value="" style="html=1;points=[];perimeter=orthogonalPerimeter;" vertex="1" parent="1">
          <mxGeometry x="625" y="308" width="10" height="72" as="geometry" />
        </mxCell>
        <mxCell id="QjIzyJawKiu5ySrEtMav-35" value="" style="endArrow=none;dashed=1;html=1;entryX=0.5;entryY=1;entryDx=0;entryDy=0;" edge="1" parent="1" target="QjIzyJawKiu5ySrEtMav-34">
          <mxGeometry width="50" height="50" relative="1" as="geometry">
            <mxPoint x="630" y="460" as="sourcePoint" />
            <mxPoint x="629.76" y="130" as="targetPoint" />
          </mxGeometry>
        </mxCell>
        <mxCell id="QjIzyJawKiu5ySrEtMav-36" value="" style="endArrow=none;dashed=1;html=1;exitX=0.314;exitY=1.002;exitDx=0;exitDy=0;exitPerimeter=0;" edge="1" parent="1" source="QjIzyJawKiu5ySrEtMav-26">
          <mxGeometry width="50" height="50" relative="1" as="geometry">
            <mxPoint x="550" y="430" as="sourcePoint" />
            <mxPoint x="380" y="280" as="targetPoint" />
          </mxGeometry>
        </mxCell>
        <mxCell id="QjIzyJawKiu5ySrEtMav-37" value="&lt;font style=&quot;font-size: 10px&quot;&gt;2. 发起Fetcher请求&lt;/font&gt;" style="text;html=1;strokeColor=none;fillColor=none;align=center;verticalAlign=middle;whiteSpace=wrap;rounded=0;" vertex="1" parent="1">
          <mxGeometry x="397" y="288" width="110" height="20" as="geometry" />
        </mxCell>
        <mxCell id="QjIzyJawKiu5ySrEtMav-39" value="" style="endArrow=none;dashed=1;html=1;entryX=0.5;entryY=1;entryDx=0;entryDy=0;" edge="1" parent="1" source="QjIzyJawKiu5ySrEtMav-42">
          <mxGeometry width="50" height="50" relative="1" as="geometry">
            <mxPoint x="745" y="420" as="sourcePoint" />
            <mxPoint x="744.8299999999999" y="130" as="targetPoint" />
          </mxGeometry>
        </mxCell>
        <mxCell id="QjIzyJawKiu5ySrEtMav-42" value="" style="html=1;points=[];perimeter=orthogonalPerimeter;" vertex="1" parent="1">
          <mxGeometry x="740" y="318" width="10" height="62" as="geometry" />
        </mxCell>
        <mxCell id="QjIzyJawKiu5ySrEtMav-43" value="" style="endArrow=none;dashed=1;html=1;entryX=0.5;entryY=1;entryDx=0;entryDy=0;" edge="1" parent="1" target="QjIzyJawKiu5ySrEtMav-42">
          <mxGeometry width="50" height="50" relative="1" as="geometry">
            <mxPoint x="745" y="460" as="sourcePoint" />
            <mxPoint x="744.8299999999999" y="130" as="targetPoint" />
          </mxGeometry>
        </mxCell>
        <mxCell id="QjIzyJawKiu5ySrEtMav-48" value="" style="endArrow=classic;html=1;entryX=-0.088;entryY=0.006;entryDx=0;entryDy=0;entryPerimeter=0;" edge="1" parent="1" target="QjIzyJawKiu5ySrEtMav-42">
          <mxGeometry width="50" height="50" relative="1" as="geometry">
            <mxPoint x="635" y="318" as="sourcePoint" />
            <mxPoint x="709" y="319" as="targetPoint" />
          </mxGeometry>
        </mxCell>
        <mxCell id="QjIzyJawKiu5ySrEtMav-51" value="" style="endArrow=block;dashed=1;endFill=0;endSize=12;html=1;exitX=-0.017;exitY=0.995;exitDx=0;exitDy=0;exitPerimeter=0;entryX=0.92;entryY=0.463;entryDx=0;entryDy=0;entryPerimeter=0;" edge="1" parent="1" source="QjIzyJawKiu5ySrEtMav-42" target="QjIzyJawKiu5ySrEtMav-56">
          <mxGeometry width="160" relative="1" as="geometry">
            <mxPoint x="779" y="340.36" as="sourcePoint" />
            <mxPoint x="635" y="339.9999999999999" as="targetPoint" />
          </mxGeometry>
        </mxCell>
        <mxCell id="QjIzyJawKiu5ySrEtMav-54" value="&lt;font&gt;&lt;span style=&quot;font-size: 10px&quot;&gt;2.1 异步 future&amp;nbsp;get&lt;/span&gt;&lt;/font&gt;" style="text;html=1;strokeColor=none;fillColor=none;align=center;verticalAlign=middle;whiteSpace=wrap;rounded=0;" vertex="1" parent="1">
          <mxGeometry x="650" y="284" width="70" height="28" as="geometry" />
        </mxCell>
        <mxCell id="QjIzyJawKiu5ySrEtMav-55" value="&lt;font&gt;&lt;span style=&quot;font-size: 10px&quot;&gt;2.2 ES、&lt;/span&gt;&lt;/font&gt;&lt;span style=&quot;color: rgba(0 , 0 , 0 , 0) ; font-family: monospace ; font-size: 0px&quot;&gt;%3CmxGraphModel%3E%3Croot%3E%3CmxCell%20id%3D%220%22%2F%3E%3CmxCell%20id%3D%221%22%20parent%3D%220%22%2F%3E%3CmxCell%20id%3D%222%22%20value%3D%22%26lt%3Bfont%26gt%3B%26lt%3Bspan%20style%3D%26quot%3Bfont-size%3A%2010px%26quot%3B%26gt%3B2.1%20%E5%BC%82%E6%AD%A5%20future%26amp%3Bnbsp%3Bget%26lt%3B%2Fspan%26gt%3B%26lt%3B%2Ffont%26gt%3B%22%20style%3D%22text%3Bhtml%3D1%3BstrokeColor%3Dnone%3BfillColor%3Dnone%3Balign%3Dcenter%3BverticalAlign%3Dmiddle%3BwhiteSpace%3Dwrap%3Brounded%3D0%3B%22%20vertex%3D%221%22%20parent%3D%221%22%3E%3CmxGeometry%20x%3D%22650%22%20y%3D%22284%22%20width%3D%2270%22%20height%3D%2228%22%20as%3D%22geometry%22%2F%3E%3C%2FmxCell%3E%3C%2Froot%3E%3C%2FmxGraphModel%3E&lt;/span&gt;&lt;span style=&quot;font-family: &amp;#34;microsoft yahei&amp;#34; ; font-size: 18px&quot;&gt;&amp;nbsp;&lt;/span&gt;&lt;span style=&quot;font-family: &amp;#34;microsoft yahei&amp;#34;&quot;&gt;&lt;font style=&quot;font-size: 12px&quot;&gt;Prometheus、Flink&lt;/font&gt;&lt;/span&gt;" style="text;html=1;strokeColor=none;fillColor=none;align=center;verticalAlign=middle;whiteSpace=wrap;rounded=0;" vertex="1" parent="1">
          <mxGeometry x="750" y="335" width="180" height="28" as="geometry" />
        </mxCell>
        <mxCell id="QjIzyJawKiu5ySrEtMav-56" value="" style="html=1;points=[];perimeter=orthogonalPerimeter;" vertex="1" parent="1">
          <mxGeometry x="374" y="350" width="10" height="70" as="geometry" />
        </mxCell>
        <mxCell id="QjIzyJawKiu5ySrEtMav-57" value="" style="endArrow=none;dashed=1;html=1;entryX=0.5;entryY=1;entryDx=0;entryDy=0;" edge="1" parent="1" target="QjIzyJawKiu5ySrEtMav-56">
          <mxGeometry width="50" height="50" relative="1" as="geometry">
            <mxPoint x="379" y="460" as="sourcePoint" />
            <mxPoint x="379" y="280.0000000000001" as="targetPoint" />
          </mxGeometry>
        </mxCell>
        <mxCell id="QjIzyJawKiu5ySrEtMav-58" value="&lt;font&gt;&lt;span style=&quot;font-size: 10px&quot;&gt;2.3 Result Build 封装结果&lt;/span&gt;&lt;/font&gt;&lt;span style=&quot;color: rgba(0 , 0 , 0 , 0) ; font-family: monospace ; font-size: 0px&quot;&gt;%3CmxGraphModel%3E%3Croot%3E%3CmxCell%20id%3D%220%22%2F%3E%3CmxCell%20id%3D%221%22%20parent%3D%220%22%2F%3E%3CmxCell%20id%3D%222%22%20value%3D%22%26lt%3Bfont%26gt%3B%26lt%3Bspan%20style%3D%26quot%3Bfont-size%3A%2010px%26quot%3B%26gt%3B2.1%20%E5%BC%82%E6%AD%A5%20future%26amp%3Bnbsp%3Bget%26lt%3B%2Fspan%26gt%3B%26lt%3B%2Ffont%26gt%3B%22%20style%3D%22text%3Bhtml%3D1%3BstrokeColor%3Dnone%3BfillColor%3Dnone%3Balign%3Dcenter%3BverticalAlign%3Dmiddle%3BwhiteSpace%3Dwrap%3Brounded%3D0%3B%22%20vertex%3D%221%22%20parent%3D%221%22%3E%3CmxGeometry%20x%3D%22650%22%20y%3D%22284%22%20width%3D%2270%22%20height%3D%2228%22%20as%3D%22geometry%22%2F%3E%3C%2FmxCell%3E%3C%2Froot%3E%3C%2FmxGraphMode&lt;/span&gt;" style="text;html=1;strokeColor=none;fillColor=none;align=center;verticalAlign=middle;whiteSpace=wrap;rounded=0;" vertex="1" parent="1">
          <mxGeometry x="374" y="352" width="180" height="28" as="geometry" />
        </mxCell>
      </root>
    </mxGraphModel>
  </diagram>
</mxfile>
